<?xml version="1.0" encoding="utf-8"?><svg viewBox="0 0 187 47" xmlns="http://www.w3.org/2000/svg" xmlns:xlink="http://www.w3.org/1999/xlink"><style>:root>svg{display:none}:root>svg:target{display:block}</style><svg fill-rule="evenodd" clip-rule="evenodd" viewBox="0 0 24 24" id="icon-next" xmlns="http://www.w3.org/2000/svg"><path d="M4 .755 18.374 12 4 23.219l.619.781L20 12 4.609 0 4 .755z"/></svg><svg fill-rule="evenodd" clip-rule="evenodd" viewBox="0 0 24 24" id="icon-prev" xmlns="http://www.w3.org/2000/svg"><path d="M20 .755 5.626 12 20 23.219l-.619.781L4 12 19.391 0 20 .755z"/></svg><svg viewBox="0 0 187 47" id="logo" xmlns="http://www.w3.org/2000/svg"><path fill-rule="evenodd" clip-rule="evenodd" d="M0 17.638V10h38.37v30.553H11.515v-7.639h19.165v-3.81H11.514v-7.638h19.165v-3.828H0Zm7.67 3.824H0v19.09h7.67v-19.09ZM46.762 40.346V10h5.946v6.654h20.816v23.692H46.762Zm20.816-5.922V22.581H52.69v11.843h14.888ZM76.496 15.171V10h5.946v5.171h-5.946Zm0 25.161V16.654h5.946v23.692l-5.946-.014ZM85.416 40.346V16.654h26.767v23.692h-5.951v-17.77h-4.457v17.77h-5.95v-17.77h-4.458v17.77h-5.951ZM115.156 47V16.654h26.763v23.692h-20.817V47h-5.946Zm20.812-12.58V22.58h-14.866v11.844l14.866-.004ZM150.839 22.576v17.77h-5.946V16.654h10.399v5.922h-4.453ZM158.238 40.346V16.654h26.763v23.692h-26.763Zm20.835-5.922V22.581h-14.888v11.843h14.888Z"/><path d="M144.227.856h2.239l1.696 11.54 1.697-11.54h2.042L149.721 15h-3.314L144.227.856ZM152.532 15V.856h2.219V15h-2.219ZM155.63 11.607v-.868h2.1v1.006c0 .92.385 1.381 1.154 1.381.77 0 1.154-.46 1.154-1.38 0-.395-.082-.767-.246-1.115a3.485 3.485 0 0 0-.621-.937c-.25-.283-.53-.563-.839-.839a57.163 57.163 0 0 1-.937-.878 9.066 9.066 0 0 1-.848-.976 4.621 4.621 0 0 1-.858-2.752c0-1.138.276-2.012.828-2.624.559-.618 1.375-.927 2.446-.927 1.072 0 1.884.31 2.437.927.559.612.838 1.486.838 2.624v.454h-2.101V4.11c0-.927-.371-1.39-1.114-1.39-.369 0-.645.111-.829.335-.184.217-.276.568-.276 1.055 0 .394.079.766.237 1.114.164.349.371.665.621.947.256.277.539.556.848.839.309.276.618.569.927.878.309.302.589.624.839.966.256.342.463.75.621 1.223.165.474.247.983.247 1.529 0 1.138-.283 2.015-.849 2.634-.565.611-1.387.917-2.465.917-1.079 0-1.901-.306-2.466-.917-.566-.619-.848-1.496-.848-2.634ZM163.027 11.627V.857h2.22v10.908c0 .92.384 1.38 1.154 1.38.762 0 1.144-.46 1.144-1.38V.856h2.101v10.77c0 1.138-.283 2.016-.849 2.634-.558.612-1.377.918-2.455.918-1.079 0-1.901-.306-2.466-.918-.566-.618-.849-1.496-.849-2.633ZM170.189 15 172.447.856h3.255L177.961 15h-2.239l-.385-2.565h-2.732L172.22 15h-2.031Zm2.702-4.488h2.14l-1.065-7.15-1.075 7.15ZM178.593 15V.856h2.219v12.122h3.659V15h-5.878Z"/></svg></svg>