<svg width="187" height="47" viewBox="0 0 187 47" fill="none" xmlns="http://www.w3.org/2000/svg">
<path fill-rule="evenodd" clip-rule="evenodd" d="M0 17.6381V10H38.3709V40.5525H11.5135V32.9144H30.6786V29.1043H11.5135V21.4662H30.6786V17.6381H0ZM7.66966 21.4617H0V40.5525H7.66966V21.4617Z" fill="#EA4C14"/>
<path fill-rule="evenodd" clip-rule="evenodd" d="M46.7617 40.3458V10H52.708V16.6542H73.5243V40.3458H46.7617ZM67.5781 34.424V22.5805H52.6899V34.424H67.5781Z" fill="#EFEFEF"/>
<path fill-rule="evenodd" clip-rule="evenodd" d="M76.4961 15.1715V10H82.4423V15.1715H76.4961ZM76.4961 40.3324V16.6542H82.4423V40.3458L76.4961 40.3324Z" fill="#EFEFEF"/>
<path fill-rule="evenodd" clip-rule="evenodd" d="M85.416 40.346V16.6543H112.183V40.346H106.232V22.5761H101.775V40.346H95.8242V22.5761H91.3668V40.346H85.416Z" fill="#EFEFEF"/>
<path fill-rule="evenodd" clip-rule="evenodd" d="M115.156 47.0001V16.6543H141.919V40.346H121.102V47.0001H115.156ZM135.968 34.4197V22.5806H121.102V34.4242L135.968 34.4197Z" fill="#EFEFEF"/>
<path fill-rule="evenodd" clip-rule="evenodd" d="M150.839 22.5761V40.346H144.893V16.6543H155.292V22.5761H150.839Z" fill="#EFEFEF"/>
<path fill-rule="evenodd" clip-rule="evenodd" d="M158.238 40.346V16.6543H185.001V40.346H158.238ZM179.073 34.4242V22.5806H164.185V34.4242H179.073Z" fill="#EFEFEF"/>
<path d="M144.227 0.856055H146.466L148.162 12.3961L149.859 0.856055H151.901L149.721 15H146.407L144.227 0.856055Z" fill="#E74214"/>
<path d="M152.532 15V0.856055H154.751V15H152.532Z" fill="#E74214"/>
<path d="M155.63 11.607V10.7391H157.73V11.7451C157.73 12.6657 158.115 13.126 158.884 13.126C159.654 13.126 160.038 12.6657 160.038 11.7451C160.038 11.3506 159.956 10.9791 159.792 10.6306C159.634 10.2821 159.427 9.96973 159.171 9.69356C158.921 9.41081 158.641 9.13135 158.332 8.85518C158.023 8.57243 157.711 8.27982 157.395 7.97734C157.086 7.66829 156.803 7.34281 156.547 7.00088C156.297 6.65895 156.09 6.25127 155.926 5.77783C155.768 5.30439 155.689 4.79479 155.689 4.24902C155.689 3.11146 155.965 2.23691 156.517 1.62539C157.076 1.00729 157.892 0.698242 158.963 0.698242C160.035 0.698242 160.847 1.00729 161.4 1.62539C161.959 2.23691 162.238 3.11146 162.238 4.24902V4.70273H160.137V4.11094C160.137 3.18379 159.766 2.72021 159.023 2.72021C158.654 2.72021 158.378 2.832 158.194 3.05557C158.01 3.27256 157.918 3.62435 157.918 4.11094C157.918 4.50547 157.997 4.87699 158.155 5.22549C158.319 5.57399 158.526 5.88962 158.776 6.17236C159.032 6.44853 159.315 6.72799 159.624 7.01074C159.933 7.28691 160.242 7.57952 160.551 7.88857C160.86 8.19105 161.14 8.51325 161.39 8.85518C161.646 9.1971 161.853 9.60479 162.011 10.0782C162.176 10.5517 162.258 11.0613 162.258 11.607C162.258 12.7446 161.975 13.6224 161.409 14.2405C160.844 14.8521 160.022 15.1578 158.944 15.1578C157.865 15.1578 157.043 14.8521 156.478 14.2405C155.912 13.6224 155.63 12.7446 155.63 11.607Z" fill="#E74214"/>
<path d="M163.027 11.6268V0.856055H165.247V11.7648C165.247 12.6854 165.631 13.1457 166.401 13.1457C167.163 13.1457 167.545 12.6854 167.545 11.7648V0.856055H169.646V11.6268C169.646 12.7643 169.363 13.6422 168.797 14.2603C168.239 14.8718 167.42 15.1775 166.342 15.1775C165.263 15.1775 164.441 14.8718 163.876 14.2603C163.31 13.6422 163.027 12.7643 163.027 11.6268Z" fill="#E74214"/>
<path d="M170.189 15L172.447 0.856055H175.702L177.961 15H175.722L175.337 12.4355H172.605L172.22 15H170.189ZM172.891 10.5122H175.031L173.966 3.36133L172.891 10.5122Z" fill="#E74214"/>
<path d="M178.593 15V0.856055H180.812V12.978H184.471V15H178.593Z" fill="#E74214"/>
</svg>
